<svg width="100" height="100" fill="none" stroke="currentColor" stroke-linecap="round" stroke-linejoin="round" stroke-width="1" viewBox="0 0 24 24" xmlns="http://www.w3.org/2000/svg">
<path d="M2.5 8.5H9"></path>
<path d="M15 8.5h6.5"></path>
<path d="M15 15.5h6.5"></path>
<path d="M2.5 15.5H9"></path>
<path d="M15 4.5h6.5v15H15"></path>
<path d="M9 4.5H2.5v15H9"></path>
<path d="M21.5 19.5v-4H17v4h4.5Z"></path>
<path d="M7 19.5v-4H2.5v4H7Z"></path>
<path d="M21.5 8.5v-4H17v4h4.5Z"></path>
<path d="M2.5 4.5v4H7v-4H2.5Z"></path>
<path d="M12 3.5v2"></path>
<path d="M12 8.5v2"></path>
<path d="M12 13.5v2"></path>
<path d="M12 18.5v2"></path>
</svg>