<svg width="100" height="100" fill="none" stroke="currentColor" stroke-linecap="round" stroke-linejoin="round" stroke-width="1" viewBox="0 0 24 24" xmlns="http://www.w3.org/2000/svg">
<path d="M19.5 3h-15A1.5 1.5 0 0 0 3 4.5v15A1.5 1.5 0 0 0 4.5 21h15a1.5 1.5 0 0 0 1.5-1.5v-15A1.5 1.5 0 0 0 19.5 3Z"></path>
<path d="M7 7.5v9"></path>
<path d="M8 12.5c1.5 0 3.5-.4 3.5-2.5S9.5 7.5 8 7.5H7v5h1Z" clip-rule="evenodd"></path>
<path d="M17 10.512c-.5 0-3-.249-3 1.494 0 1.743 3 1.245 3 2.988 0 1.743-3 1.494-3 1.494"></path>
</svg>